<?xml version="1.0" encoding="UTF-8"?>
<svg version="1.1" xmlns="http://www.w3.org/2000/svg" width="512" height="512">
<path d="M0 0 C10.90137847 7.98624662 17.93081416 17.55486328 20.5703125 30.87890625 C22.26757175 44.43892433 17.03097857 57.60972578 12.67578125 70.2421875 C12.22141373 71.57796388 11.76776031 72.91398337 11.31481934 74.25024414 C9.65597005 79.12809264 7.98345808 84.00128622 6.3125 88.875 C2.579375 99.80625 -1.15375 110.7375 -5 122 C29.32 122.33 63.64 122.66 99 123 C100.485 118.05 100.485 118.05 102 113 C103.01454011 109.8685909 104.03889278 106.74285127 105.08203125 103.62109375 C105.51833611 102.30999634 105.51833611 102.30999634 105.9634552 100.97241211 C106.91124426 98.12680614 107.86158301 95.28206213 108.8125 92.4375 C109.1392572 91.45911163 109.4660144 90.48072327 109.80267334 89.47268677 C114.41557246 75.66493248 119.04684044 61.86321421 123.72860718 48.0786438 C124.31883891 46.33957714 124.90776077 44.60006527 125.49526978 42.8600769 C137.42802071 7.54722706 137.42802071 7.54722706 155.27734375 -2.25 C165.27703556 -6.68745954 178.69178921 -6.84523 189.0625 -3.4375 C202.18124957 2.37949594 209.78824828 11.0195884 215.0546875 24.203125 C220.7005271 40.90734464 213.2215003 57.85370833 207.796875 73.68359375 C207.3089189 75.11932597 206.8213991 76.55520654 206.33428955 77.9912262 C205.06949932 81.71613017 203.79891332 85.43903 202.52697754 89.16149902 C201.22271035 92.98209004 199.92411689 96.80460847 198.625 100.62695312 C196.08878394 108.08649944 193.54642245 115.54393163 191 123 C192.50397339 122.9685791 192.50397339 122.9685791 194.03833008 122.93652344 C197.80852606 122.86335066 201.57866123 122.817924 205.34936523 122.78027344 C206.97186893 122.76033187 208.59430242 122.73316826 210.21655273 122.69824219 C223.78409713 122.41375467 234.42078924 123.7037999 245 133 C245.60585938 133.50144531 246.21171875 134.00289062 246.8359375 134.51953125 C253.32367123 140.34149318 258.40744367 149.22524216 259.17700195 158.02368164 C259.60516133 172.95126228 258.16052566 184.27939363 248 196 C235.93802403 207.32437313 223.86202598 209.32423699 207.77734375 209.1953125 C206.42257396 209.19157439 205.06780143 209.1887312 203.71302795 209.18673706 C200.17685252 209.17916332 196.64084586 209.15957004 193.10473633 209.1373291 C189.48456097 209.11673443 185.86435789 209.10770645 182.24414062 209.09765625 C175.16269209 209.07631708 168.08135716 209.04225845 161 209 C160.82794037 209.66041794 160.65588074 210.32083588 160.47860718 211.00126648 C158.63357174 217.94021075 156.49362744 224.7295405 154.1640625 231.51953125 C153.62221817 233.11108284 153.62221817 233.11108284 153.06942749 234.73478699 C152.30956202 236.96475482 151.54811653 239.19418483 150.78515625 241.4230957 C149.63202255 244.79198357 148.48354017 248.1624276 147.3359375 251.53320312 C146.5914178 253.71623861 145.84663461 255.89918424 145.1015625 258.08203125 C144.76492584 259.06895462 144.42828918 260.05587799 144.08145142 261.07270813 C141.45573643 268.73997684 138.73968946 276.3728507 136 284 C137.31639214 284.00546844 137.31639214 284.00546844 138.65937805 284.01104736 C146.97079508 284.04907282 155.2818255 284.10608928 163.59296894 284.18390274 C167.86480961 284.22324261 172.1364483 284.25549664 176.40844727 284.27099609 C180.53898169 284.28625237 184.66896034 284.3208542 188.79924583 284.36830902 C190.36706877 284.38303108 191.9349711 284.39103569 193.50286293 284.39188385 C207.75424542 284.40733233 219.42282183 287.05874282 230.16015625 297 C240.08846264 307.39224595 242.50895172 318.5390993 242.2734375 332.44140625 C241.81956084 343.39061905 236.44020078 352.70609033 228.67578125 360.26171875 C218.46410379 368.93443069 208.31979536 371.16557196 195.23095703 371.11352539 C194.26447739 371.11367142 193.29799774 371.11381744 192.30223083 371.1139679 C189.1207349 371.11327351 185.93929816 371.10550333 182.7578125 371.09765625 C180.54678377 371.09579039 178.33575463 371.09436728 176.12472534 371.09336853 C170.31492973 371.08955662 164.50515924 371.07973765 158.69537354 371.06866455 C152.76306498 371.05842192 146.83075235 371.0538648 140.8984375 371.04882812 C129.26561398 371.03811419 117.63280908 371.02105369 106 371 C105.70117904 372.00249236 105.70117904 372.00249236 105.3963213 373.02523708 C105.1313771 373.9117146 104.8664329 374.79819212 104.59346008 375.71153259 C104.33237111 376.58611083 104.07128214 377.46068907 103.80228138 378.36176968 C102.57702771 382.39090642 101.25257441 386.38491212 99.91796875 390.37890625 C99.48173187 391.68973175 99.48173187 391.68973175 99.03668213 393.02703857 C98.0888009 395.87281191 97.13839531 398.71773248 96.1875 401.5625 C95.69686569 403.03207657 95.69686569 403.03207657 95.19631958 404.53134155 C90.60931661 418.26704095 85.9935218 431.99295861 81.32632446 445.70162964 C80.74352974 447.41355538 80.16145273 449.12572566 79.58016968 450.83816528 C76.74337455 459.18914872 73.85969674 467.52037968 70.80078125 475.79296875 C70.56660995 476.43406082 70.33243866 477.07515289 70.09117126 477.735672 C65.49844556 489.99466111 58.12569504 498.91086412 46.125 504.4375 C35.76730519 508.69906078 22.45511079 508.71479683 11.9375 505.0625 C1.01121399 500.14150096 -7.84737796 490.84129958 -12.3125 479.75 C-17.8406148 463.00374429 -12.35259993 448.33264748 -6.8984375 432.42578125 C-6.36363818 430.8486669 -5.82953824 429.27131522 -5.29614258 427.69372559 C-3.33087017 421.89711478 -1.35214699 416.1050713 0.625 410.3125 C7.245625 390.8528125 7.245625 390.8528125 14 371 C-37.48 371.495 -37.48 371.495 -90 372 C-93.17625 381.384375 -96.3525 390.76875 -99.625 400.4375 C-101.55423578 406.13166409 -103.48363938 411.82576981 -105.4140625 417.51953125 C-108.3913569 426.30115773 -111.36710942 435.0832896 -114.33602905 443.86775208 C-115.60002088 447.60504396 -116.86739115 451.34118255 -118.13592529 455.07693481 C-118.70449315 456.75358145 -119.27163078 458.43071389 -119.83721924 460.10836792 C-128.77616368 486.61492886 -128.77616368 486.61492886 -134.5 492.5 C-135.2321875 493.2734375 -135.964375 494.046875 -136.71875 494.84375 C-140.18940203 498.12422931 -143.62882023 501.02793296 -147.9375 503.125 C-148.56527344 503.43695313 -149.19304687 503.74890625 -149.83984375 504.0703125 C-159.82574097 508.36804042 -172.58174085 508.90741906 -183 505.5 C-195.14033952 500.13785937 -204.12293779 491.33334001 -209 479 C-214.60305219 461.7451461 -207.48819532 444.92597885 -201.90234375 428.59765625 C-201.42161337 427.18107568 -200.94128034 425.76436022 -200.46131897 424.34751892 C-199.46502385 421.40962611 -198.46564873 418.47280838 -197.46362305 415.53686523 C-196.18630525 411.79425552 -194.91439791 408.04983657 -193.64447689 404.30471134 C-192.41971428 400.69342039 -191.19242474 397.08298993 -189.96484375 393.47265625 C-189.73529432 392.79696154 -189.5057449 392.12126682 -189.26923943 391.42509651 C-186.94167165 384.57946192 -184.59431023 377.75010454 -182 371 C-182.99217529 371.02094727 -183.98435059 371.04189453 -185.0065918 371.06347656 C-188.75074349 371.13685595 -192.49483426 371.18214836 -196.23950195 371.21972656 C-197.84833526 371.23962238 -199.45709842 371.26674929 -201.06567383 371.30175781 C-217.00784703 371.63957887 -229.87432763 369.35287154 -241.99609375 358.15625 C-251.75683303 347.91272147 -253.49011756 336.27573355 -253.2734375 322.78515625 C-252.80064924 310.78522855 -246.73012568 302.31307032 -238.25 294.25 C-230.75873511 287.958508 -222.06247459 284.86830362 -212.39550781 284.88647461 C-211.41439781 284.88625557 -211.41439781 284.88625557 -210.41346741 284.8860321 C-208.25998574 284.88672659 -206.10659148 284.89449717 -203.953125 284.90234375 C-202.45668586 284.90420958 -200.96024612 284.90563271 -199.46380615 284.90663147 C-195.53141585 284.91044365 -191.59906268 284.92026283 -187.66668701 284.93133545 C-183.65149437 284.94157751 -179.6362957 284.94613508 -175.62109375 284.95117188 C-167.74737883 284.96188628 -159.87369404 284.97894709 -152 285 C-151.8605748 284.09218277 -151.7211496 283.18436554 -151.57749939 282.2490387 C-151.12429058 279.69926464 -150.5988549 277.44889282 -149.76000977 275.01538086 C-149.51207169 274.28858627 -149.26413361 273.56179169 -149.00868225 272.81297302 C-148.73898117 272.03809036 -148.46928009 271.2632077 -148.19140625 270.46484375 C-147.9057933 269.63207413 -147.62018036 268.7993045 -147.32591248 267.94129944 C-146.40918884 265.2718239 -145.48597602 262.60464615 -144.5625 259.9375 C-143.9767831 258.23517408 -143.39149364 256.53270103 -142.80664062 254.83007812 C-141.24628688 250.2916376 -139.67982577 245.75532733 -138.11212158 241.21942139 C-136.14366404 235.52103876 -134.17930588 229.8212423 -132.21436882 224.12164497 C-131.11694964 220.93854468 -130.01928267 217.75552985 -128.92163086 214.57250977 C-128.55081894 213.49719498 -128.18000702 212.42188019 -127.79795837 211.3139801 C-127.53463211 210.55036667 -127.27130585 209.78675323 -127 209 C-127.87315353 209.00888245 -128.74630707 209.01776489 -129.6459198 209.0269165 C-137.92700481 209.10749791 -146.20795568 209.16818381 -154.4893446 209.20724869 C-158.74559114 209.22800844 -163.00151021 209.25610982 -167.25756836 209.30175781 C-171.37490815 209.34563508 -175.49193556 209.36922409 -179.60949135 209.37950897 C-181.17017844 209.38682606 -182.73085096 209.40111157 -184.29140282 209.42292023 C-197.33677083 209.59776213 -209.25561628 207.99639618 -220 200 C-221.010625 199.29875 -222.02125 198.5975 -223.0625 197.875 C-230.14691375 191.71968969 -235.10508973 181.95473127 -236.29907227 172.67578125 C-236.43563117 170.31636055 -236.46820483 167.98806313 -236.4375 165.625 C-236.42920166 164.79500488 -236.42090332 163.96500977 -236.41235352 163.10986328 C-236.07823977 150.93195247 -231.50342035 142.70622971 -223.12109375 134.0625 C-216.31281673 127.68059992 -207.99099457 122.86849408 -198.49481201 122.87974548 C-197.59741302 122.87837082 -196.70001404 122.87699615 -195.77542114 122.87557983 C-194.31022537 122.88097275 -194.31022537 122.88097275 -192.81542969 122.88647461 C-191.7809671 122.88632858 -190.74650452 122.88618256 -189.68069458 122.8860321 C-186.26106673 122.88672883 -182.84149334 122.89451006 -179.421875 122.90234375 C-177.05104604 122.90420878 -174.68021669 122.90563228 -172.30938721 122.90663147 C-166.06883684 122.91044994 -159.82830973 122.92027455 -153.58776855 122.93133545 C-147.2199739 122.94156394 -140.8521755 122.94613218 -134.484375 122.95117188 C-121.98957311 122.96189738 -109.49478849 122.97896581 -97 123 C-96.72547689 121.96415504 -96.72547689 121.96415504 -96.44540787 120.90738392 C-94.83355648 114.90035141 -93.08814105 108.974075 -91.10839844 103.07885742 C-90.70032707 101.85196953 -90.70032707 101.85196953 -90.28401184 100.60029602 C-89.39596573 97.93417017 -88.50315324 95.26967807 -87.609375 92.60546875 C-87.30091896 91.68423029 -86.99246292 90.76299183 -86.67465973 89.81383705 C-85.04263489 84.94005652 -83.40692341 80.06753214 -81.76806641 75.19604492 C-80.09035934 70.20675088 -78.42516747 65.21337533 -76.7628746 60.21892834 C-75.46913171 56.33945359 -74.16607999 52.46315039 -72.86060333 48.58761024 C-72.24329545 46.74985361 -71.62936044 44.91095995 -71.01909637 43.07085228 C-59.14747478 7.31585745 -59.14747478 7.31585745 -41 -2 C-28.07283608 -7.40776538 -12.19653111 -7.14510678 0 0 Z M-35 209 C-37.28850237 214.72125593 -39.50955209 220.27796416 -41.47363281 226.08618164 C-41.68879547 226.7200177 -41.90395813 227.35385376 -42.12564087 228.00689697 C-42.82082485 230.05708449 -43.51208435 232.10856887 -44.203125 234.16015625 C-44.69045557 235.60085126 -45.1779876 237.04147814 -45.66571045 238.48204041 C-46.67925274 241.47760142 -47.69094272 244.47377906 -48.70117188 247.47045898 C-49.99844283 251.31836612 -51.29955564 255.16496076 -52.60191727 259.0111475 C-53.60507247 261.97458214 -54.60667439 264.93853979 -55.60774994 267.90267754 C-56.08743067 269.32264474 -56.56749673 270.74248183 -57.04795074 272.16218758 C-57.71480343 274.13373886 -58.37966907 276.10594853 -59.04394531 278.07836914 C-59.42270813 279.2007045 -59.80147095 280.32303986 -60.19171143 281.47938538 C-61.05089258 283.71753283 -61.05089258 283.71753283 -61 285 C-26.35 285 8.3 285 44 285 C53.85269928 257.04321165 53.85269928 257.04321165 63.53491211 229.02832031 C64.35877628 226.61441123 65.18618073 224.20173043 66.01367188 221.7890625 C66.54707283 220.2292343 67.08028535 218.66934165 67.61328125 217.109375 C67.85685867 216.39940369 68.1004361 215.68943237 68.35139465 214.95794678 C69.50688233 212.04342388 69.50688233 212.04342388 70 209 C35.35 209 0.7 209 -35 209 Z " fill="#E81D62" transform="translate(253,5)"/>
<path d="M0 0 C10.90137847 7.98624662 17.93081416 17.55486328 20.5703125 30.87890625 C22.26757175 44.43892433 17.03097857 57.60972578 12.67578125 70.2421875 C12.22141373 71.57796388 11.76776031 72.91398337 11.31481934 74.25024414 C9.65597005 79.12809264 7.98345808 84.00128622 6.3125 88.875 C2.579375 99.80625 -1.15375 110.7375 -5 122 C29.32 122.33 63.64 122.66 99 123 C100.485 118.05 100.485 118.05 102 113 C103.01454011 109.8685909 104.03889278 106.74285127 105.08203125 103.62109375 C105.51833611 102.30999634 105.51833611 102.30999634 105.9634552 100.97241211 C106.91124426 98.12680614 107.86158301 95.28206213 108.8125 92.4375 C109.1392572 91.45911163 109.4660144 90.48072327 109.80267334 89.47268677 C114.41557246 75.66493248 119.04684044 61.86321421 123.72860718 48.0786438 C124.31883891 46.33957714 124.90776077 44.60006527 125.49526978 42.8600769 C137.42802071 7.54722706 137.42802071 7.54722706 155.27734375 -2.25 C165.27703556 -6.68745954 178.69178921 -6.84523 189.0625 -3.4375 C202.18124957 2.37949594 209.78824828 11.0195884 215.0546875 24.203125 C220.7005271 40.90734464 213.2215003 57.85370833 207.796875 73.68359375 C207.3089189 75.11932597 206.8213991 76.55520654 206.33428955 77.9912262 C205.06949932 81.71613017 203.79891332 85.43903 202.52697754 89.16149902 C201.22271035 92.98209004 199.92411689 96.80460847 198.625 100.62695312 C196.08878394 108.08649944 193.54642245 115.54393163 191 123 C192.50397339 122.9685791 192.50397339 122.9685791 194.03833008 122.93652344 C197.80852606 122.86335066 201.57866123 122.817924 205.34936523 122.78027344 C206.97186893 122.76033187 208.59430242 122.73316826 210.21655273 122.69824219 C223.78409713 122.41375467 234.42078924 123.7037999 245 133 C245.60585938 133.50144531 246.21171875 134.00289062 246.8359375 134.51953125 C253.32367123 140.34149318 258.40744367 149.22524216 259.17700195 158.02368164 C259.60516133 172.95126228 258.16052566 184.27939363 248 196 C235.93802403 207.32437313 223.86202598 209.32423699 207.77734375 209.1953125 C206.42257396 209.19157439 205.06780143 209.1887312 203.71302795 209.18673706 C200.17685252 209.17916332 196.64084586 209.15957004 193.10473633 209.1373291 C189.48456097 209.11673443 185.86435789 209.10770645 182.24414062 209.09765625 C175.16269209 209.07631708 168.08135716 209.04225845 161 209 C160.82794037 209.66041794 160.65588074 210.32083588 160.47860718 211.00126648 C158.63357174 217.94021075 156.49362744 224.7295405 154.1640625 231.51953125 C153.62221817 233.11108284 153.62221817 233.11108284 153.06942749 234.73478699 C152.30956202 236.96475482 151.54811653 239.19418483 150.78515625 241.4230957 C149.63202255 244.79198357 148.48354017 248.1624276 147.3359375 251.53320312 C146.5914178 253.71623861 145.84663461 255.89918424 145.1015625 258.08203125 C144.76492584 259.06895462 144.42828918 260.05587799 144.08145142 261.07270813 C141.45573643 268.73997684 138.73968946 276.3728507 136 284 C137.31639214 284.00546844 137.31639214 284.00546844 138.65937805 284.01104736 C146.97079508 284.04907282 155.2818255 284.10608928 163.59296894 284.18390274 C167.86480961 284.22324261 172.1364483 284.25549664 176.40844727 284.27099609 C180.53898169 284.28625237 184.66896034 284.3208542 188.79924583 284.36830902 C190.36706877 284.38303108 191.9349711 284.39103569 193.50286293 284.39188385 C207.75424542 284.40733233 219.42282183 287.05874282 230.16015625 297 C240.08846264 307.39224595 242.50895172 318.5390993 242.2734375 332.44140625 C241.81956084 343.39061905 236.44020078 352.70609033 228.67578125 360.26171875 C218.46410379 368.93443069 208.31979536 371.16557196 195.23095703 371.11352539 C194.26447739 371.11367142 193.29799774 371.11381744 192.30223083 371.1139679 C189.1207349 371.11327351 185.93929816 371.10550333 182.7578125 371.09765625 C180.54678377 371.09579039 178.33575463 371.09436728 176.12472534 371.09336853 C170.31492973 371.08955662 164.50515924 371.07973765 158.69537354 371.06866455 C152.76306498 371.05842192 146.83075235 371.0538648 140.8984375 371.04882812 C129.26561398 371.03811419 117.63280908 371.02105369 106 371 C105.70117904 372.00249236 105.70117904 372.00249236 105.3963213 373.02523708 C105.1313771 373.9117146 104.8664329 374.79819212 104.59346008 375.71153259 C104.33237111 376.58611083 104.07128214 377.46068907 103.80228138 378.36176968 C102.57702771 382.39090642 101.25257441 386.38491212 99.91796875 390.37890625 C99.48173187 391.68973175 99.48173187 391.68973175 99.03668213 393.02703857 C98.0888009 395.87281191 97.13839531 398.71773248 96.1875 401.5625 C95.69686569 403.03207657 95.69686569 403.03207657 95.19631958 404.53134155 C90.60931661 418.26704095 85.9935218 431.99295861 81.32632446 445.70162964 C80.74352974 447.41355538 80.16145273 449.12572566 79.58016968 450.83816528 C76.74337455 459.18914872 73.85969674 467.52037968 70.80078125 475.79296875 C70.56660995 476.43406082 70.33243866 477.07515289 70.09117126 477.735672 C65.49844556 489.99466111 58.12569504 498.91086412 46.125 504.4375 C35.76730519 508.69906078 22.45511079 508.71479683 11.9375 505.0625 C1.01121399 500.14150096 -7.84737796 490.84129958 -12.3125 479.75 C-17.8406148 463.00374429 -12.35259993 448.33264748 -6.8984375 432.42578125 C-6.36363818 430.8486669 -5.82953824 429.27131522 -5.29614258 427.69372559 C-3.33087017 421.89711478 -1.35214699 416.1050713 0.625 410.3125 C7.245625 390.8528125 7.245625 390.8528125 14 371 C-37.48 371.495 -37.48 371.495 -90 372 C-93.17625 381.384375 -96.3525 390.76875 -99.625 400.4375 C-101.55423578 406.13166409 -103.48363938 411.82576981 -105.4140625 417.51953125 C-108.3913569 426.30115773 -111.36710942 435.0832896 -114.33602905 443.86775208 C-115.60002088 447.60504396 -116.86739115 451.34118255 -118.13592529 455.07693481 C-118.70449315 456.75358145 -119.27163078 458.43071389 -119.83721924 460.10836792 C-128.77616368 486.61492886 -128.77616368 486.61492886 -134.5 492.5 C-135.2321875 493.2734375 -135.964375 494.046875 -136.71875 494.84375 C-140.18940203 498.12422931 -143.62882023 501.02793296 -147.9375 503.125 C-148.56527344 503.43695313 -149.19304687 503.74890625 -149.83984375 504.0703125 C-159.82574097 508.36804042 -172.58174085 508.90741906 -183 505.5 C-195.14033952 500.13785937 -204.12293779 491.33334001 -209 479 C-214.60305219 461.7451461 -207.48819532 444.92597885 -201.90234375 428.59765625 C-201.42161337 427.18107568 -200.94128034 425.76436022 -200.46131897 424.34751892 C-199.46502385 421.40962611 -198.46564873 418.47280838 -197.46362305 415.53686523 C-196.18630525 411.79425552 -194.91439791 408.04983657 -193.64447689 404.30471134 C-192.41971428 400.69342039 -191.19242474 397.08298993 -189.96484375 393.47265625 C-189.73529432 392.79696154 -189.5057449 392.12126682 -189.26923943 391.42509651 C-186.94167165 384.57946192 -184.59431023 377.75010454 -182 371 C-182.99217529 371.02094727 -183.98435059 371.04189453 -185.0065918 371.06347656 C-188.75074349 371.13685595 -192.49483426 371.18214836 -196.23950195 371.21972656 C-197.84833526 371.23962238 -199.45709842 371.26674929 -201.06567383 371.30175781 C-217.00784703 371.63957887 -229.87432763 369.35287154 -241.99609375 358.15625 C-251.75683303 347.91272147 -253.49011756 336.27573355 -253.2734375 322.78515625 C-252.80064924 310.78522855 -246.73012568 302.31307032 -238.25 294.25 C-230.75873511 287.958508 -222.06247459 284.86830362 -212.39550781 284.88647461 C-211.41439781 284.88625557 -211.41439781 284.88625557 -210.41346741 284.8860321 C-208.25998574 284.88672659 -206.10659148 284.89449717 -203.953125 284.90234375 C-202.45668586 284.90420958 -200.96024612 284.90563271 -199.46380615 284.90663147 C-195.53141585 284.91044365 -191.59906268 284.92026283 -187.66668701 284.93133545 C-183.65149437 284.94157751 -179.6362957 284.94613508 -175.62109375 284.95117188 C-167.74737883 284.96188628 -159.87369404 284.97894709 -152 285 C-151.8605748 284.09218277 -151.7211496 283.18436554 -151.57749939 282.2490387 C-151.12429058 279.69926464 -150.5988549 277.44889282 -149.76000977 275.01538086 C-149.51207169 274.28858627 -149.26413361 273.56179169 -149.00868225 272.81297302 C-148.73898117 272.03809036 -148.46928009 271.2632077 -148.19140625 270.46484375 C-147.9057933 269.63207413 -147.62018036 268.7993045 -147.32591248 267.94129944 C-146.40918884 265.2718239 -145.48597602 262.60464615 -144.5625 259.9375 C-143.9767831 258.23517408 -143.39149364 256.53270103 -142.80664062 254.83007812 C-141.24628688 250.2916376 -139.67982577 245.75532733 -138.11212158 241.21942139 C-136.14366404 235.52103876 -134.17930588 229.8212423 -132.21436882 224.12164497 C-131.11694964 220.93854468 -130.01928267 217.75552985 -128.92163086 214.57250977 C-128.55081894 213.49719498 -128.18000702 212.42188019 -127.79795837 211.3139801 C-127.53463211 210.55036667 -127.27130585 209.78675323 -127 209 C-127.87315353 209.00888245 -128.74630707 209.01776489 -129.6459198 209.0269165 C-137.92700481 209.10749791 -146.20795568 209.16818381 -154.4893446 209.20724869 C-158.74559114 209.22800844 -163.00151021 209.25610982 -167.25756836 209.30175781 C-171.37490815 209.34563508 -175.49193556 209.36922409 -179.60949135 209.37950897 C-181.17017844 209.38682606 -182.73085096 209.40111157 -184.29140282 209.42292023 C-197.33677083 209.59776213 -209.25561628 207.99639618 -220 200 C-221.010625 199.29875 -222.02125 198.5975 -223.0625 197.875 C-230.14691375 191.71968969 -235.10508973 181.95473127 -236.29907227 172.67578125 C-236.43563117 170.31636055 -236.46820483 167.98806313 -236.4375 165.625 C-236.42920166 164.79500488 -236.42090332 163.96500977 -236.41235352 163.10986328 C-236.07823977 150.93195247 -231.50342035 142.70622971 -223.12109375 134.0625 C-216.31281673 127.68059992 -207.99099457 122.86849408 -198.49481201 122.87974548 C-197.59741302 122.87837082 -196.70001404 122.87699615 -195.77542114 122.87557983 C-194.31022537 122.88097275 -194.31022537 122.88097275 -192.81542969 122.88647461 C-191.7809671 122.88632858 -190.74650452 122.88618256 -189.68069458 122.8860321 C-186.26106673 122.88672883 -182.84149334 122.89451006 -179.421875 122.90234375 C-177.05104604 122.90420878 -174.68021669 122.90563228 -172.30938721 122.90663147 C-166.06883684 122.91044994 -159.82830973 122.92027455 -153.58776855 122.93133545 C-147.2199739 122.94156394 -140.8521755 122.94613218 -134.484375 122.95117188 C-121.98957311 122.96189738 -109.49478849 122.97896581 -97 123 C-96.72547689 121.96415504 -96.72547689 121.96415504 -96.44540787 120.90738392 C-94.83355648 114.90035141 -93.08814105 108.974075 -91.10839844 103.07885742 C-90.70032707 101.85196953 -90.70032707 101.85196953 -90.28401184 100.60029602 C-89.39596573 97.93417017 -88.50315324 95.26967807 -87.609375 92.60546875 C-87.30091896 91.68423029 -86.99246292 90.76299183 -86.67465973 89.81383705 C-85.04263489 84.94005652 -83.40692341 80.06753214 -81.76806641 75.19604492 C-80.09035934 70.20675088 -78.42516747 65.21337533 -76.7628746 60.21892834 C-75.46913171 56.33945359 -74.16607999 52.46315039 -72.86060333 48.58761024 C-72.24329545 46.74985361 -71.62936044 44.91095995 -71.01909637 43.07085228 C-59.14747478 7.31585745 -59.14747478 7.31585745 -41 -2 C-28.07283608 -7.40776538 -12.19653111 -7.14510678 0 0 Z M-42.25 19.8125 C-51.47279383 32.38497682 -54.80942222 51.08948045 -59.743927 65.77011108 C-62.06982715 72.68761344 -64.41281126 79.59934762 -66.75390625 86.51171875 C-66.98326056 87.18900087 -67.21261486 87.866283 -67.4489193 88.56408882 C-68.56004327 91.84519674 -69.67137558 95.1262339 -70.78302002 98.40716553 C-71.55061387 100.67329783 -72.31772888 102.93959244 -73.08416748 105.20611572 C-74.81683295 110.32861749 -76.55918494 115.44739904 -78.32830811 120.55743408 C-78.81339452 121.96478555 -79.293833 123.37374863 -79.76934814 124.78436279 C-80.40807576 126.67686991 -81.06478292 128.56328162 -81.72265625 130.44921875 C-82.07078369 131.46330811 -82.41891113 132.47739746 -82.77758789 133.5222168 C-84.18601824 136.37705195 -85.31272064 137.33874366 -88 139 C-90.19778633 139.3707943 -90.19778633 139.3707943 -92.62771606 139.36508179 C-94.0152433 139.37305031 -94.0152433 139.37305031 -95.43080139 139.38117981 C-96.43864182 139.3718895 -97.44648224 139.36259918 -98.48486328 139.35302734 C-99.55203079 139.35518753 -100.6191983 139.35734772 -101.71870422 139.35957336 C-104.03714151 139.36266208 -106.35559512 139.35904938 -108.67401505 139.34955978 C-112.348602 139.33583181 -116.02264818 139.34225441 -119.69723511 139.35440063 C-130.14519761 139.38537093 -140.59303577 139.38053232 -151.04101562 139.36035156 C-157.43242367 139.34940916 -163.82342698 139.36268169 -170.2147789 139.39024734 C-172.64592107 139.39567571 -175.07710402 139.39165536 -177.50821304 139.37784958 C-180.91884378 139.3587147 -184.32816002 139.37025575 -187.73876953 139.38818359 C-188.73446457 139.37484482 -189.73015961 139.36150604 -190.75602722 139.34776306 C-198.6589699 139.43965136 -205.24713646 141.55051342 -211.14912605 146.9753933 C-216.21530248 152.35667427 -219.07134379 157.73473839 -219.5625 165.1875 C-219.3240321 172.71479117 -216.31547953 179.65866878 -210.99609375 185.01953125 C-204.75049603 189.8903864 -199.32926608 191.29653057 -191.43359375 191.27124023 C-190.58258087 191.27646698 -189.73156799 191.28169373 -188.85476685 191.28707886 C-187.01217487 191.29729807 -185.16955419 191.30309563 -183.32693481 191.30496025 C-180.40979575 191.30862859 -177.4929952 191.32536716 -174.57592773 191.34571838 C-166.2840809 191.40109267 -157.9921849 191.43183963 -149.70019531 191.45629883 C-144.62391126 191.4721739 -139.54786901 191.50238923 -134.47171021 191.54106331 C-132.53885464 191.55271039 -130.60595584 191.55864363 -128.67306519 191.55874443 C-125.97058853 191.5589365 -123.26877924 191.57720336 -120.56640625 191.59936523 C-119.76937286 191.59478806 -118.97233948 191.59021088 -118.15115356 191.585495 C-113.62383974 191.6445129 -110.53801641 192.07275055 -107 195 C-105.36806562 200.45086873 -106.43039298 204.6096856 -108.33203125 209.7890625 C-108.59538269 210.54591339 -108.85873413 211.30276428 -109.13006592 212.08255005 C-110.01002309 214.60193728 -110.91102888 217.11323844 -111.8125 219.625 C-112.76705701 222.33188251 -113.7167342 225.04044625 -114.66612244 227.74914551 C-115.34586246 229.68751783 -116.02743971 231.62524671 -116.71070862 233.56237793 C-119.48579471 241.45249718 -122.13938787 249.37956455 -124.765625 257.3203125 C-125.96911765 260.93991715 -127.17362734 264.55918217 -128.37826538 268.17840576 C-129.16579094 270.55354468 -129.948715 272.93021442 -130.72695923 275.30841064 C-131.82644332 278.66344948 -132.94442785 282.01180314 -134.06640625 285.359375 C-134.3899408 286.36283966 -134.71347534 287.36630432 -135.04681396 288.400177 C-135.36209045 289.32998383 -135.67736694 290.25979065 -136.00219727 291.21777344 C-136.26863541 292.02454529 -136.53507355 292.83131714 -136.80958557 293.66253662 C-138.44168886 296.86728749 -140.17877942 298.76128406 -143 301 C-146.30534363 301.60559082 -146.30534363 301.60559082 -150.11010742 301.58007812 C-150.80678528 301.58253036 -151.50346313 301.5849826 -152.22125244 301.58750916 C-153.72829262 301.58967529 -155.2353835 301.58044505 -156.74230003 301.5610199 C-159.13614154 301.5308636 -161.52820115 301.53200499 -163.92219543 301.5411377 C-169.86994634 301.55739412 -175.8171455 301.52019371 -181.76477051 301.48455811 C-186.78896228 301.45647998 -191.81239319 301.44903225 -196.83663368 301.46812439 C-199.18013087 301.46873684 -201.52201134 301.43968298 -203.86528015 301.40930176 C-213.25151021 301.37809426 -220.97118189 302.33021574 -228.12760925 308.97570801 C-233.30704726 314.41098919 -236.10045122 319.80193513 -236.4375 327.375 C-236.18744682 335.66085318 -232.79716243 342.20283757 -227 348 C-221.86855614 351.60587947 -217.31874188 353.10408208 -211.11132812 353.17358398 C-209.65962219 353.19381874 -209.65962219 353.19381874 -208.17858887 353.21446228 C-207.13996704 353.22490067 -206.10134521 353.23533905 -205.03125 353.24609375 C-202.82942293 353.27902026 -200.62760011 353.3122321 -198.42578125 353.34570312 C-194.95624601 353.39318719 -191.48672947 353.43764977 -188.01708984 353.47680664 C-184.66746514 353.51647387 -181.31818528 353.56801773 -177.96875 353.62109375 C-176.41081726 353.63371498 -176.41081726 353.63371498 -174.82141113 353.64659119 C-173.85360718 353.66323318 -172.88580322 353.67987518 -171.88867188 353.69702148 C-171.0391394 353.70732895 -170.18960693 353.71763641 -169.31433105 353.72825623 C-166.77818027 354.0260456 -165.15470586 354.64354058 -163 356 C-160.42003664 361.15992671 -162.09123671 367.18635128 -163.81816101 372.37527466 C-164.08619034 373.13967865 -164.35421967 373.90408264 -164.63037109 374.69165039 C-164.91001205 375.52038162 -165.18965302 376.34911285 -165.47776794 377.20295715 C-166.39830506 379.92186813 -167.3357749 382.63460892 -168.2734375 385.34765625 C-168.91994183 387.24721731 -169.56532029 389.1471619 -170.20962524 391.04747009 C-171.90473717 396.03785212 -173.61404967 401.02325079 -175.32672119 406.00762939 C-177.40276669 412.05759464 -179.4627962 418.1130269 -181.52445412 424.16790676 C-183.12917443 428.88015747 -184.73646756 433.59147302 -186.35189819 438.30006409 C-186.64920334 439.16851959 -186.94650848 440.0369751 -187.25282288 440.93174744 C-187.80405939 442.54173527 -188.35660191 444.15127687 -188.91078186 445.76025391 C-192.11602121 455.13436082 -195.40765263 464.76629366 -192.125 474.62890625 C-188.33469004 481.99756806 -182.57174951 486.78131476 -175 490 C-167.09456879 491.01798476 -159.54563118 490.88931575 -153 486 C-145.72371541 479.71593604 -142.95048606 472.72562496 -140.015625 463.81640625 C-139.64267303 462.70852249 -139.26972107 461.60063873 -138.88546753 460.45918274 C-137.66554709 456.82961466 -136.45787064 453.19609383 -135.25 449.5625 C-134.40573578 447.04475937 -133.56070678 444.52729201 -132.71435547 442.01025391 C-131.20082297 437.50666853 -129.68992318 433.0022191 -128.18269157 428.496521 C-124.54042697 417.60983709 -120.84932847 406.73991644 -117.1463623 395.87374878 C-116.15088372 392.95099534 -115.15770479 390.02746957 -114.16503906 387.10375977 C-112.98012624 383.61429421 -111.78711632 380.12778851 -110.58691406 376.64355469 C-109.56847732 373.68455631 -108.58118901 370.71860419 -107.62402344 367.73925781 C-107.20926758 366.48725586 -106.79451172 365.23525391 -106.3671875 363.9453125 C-106.0254248 362.88070801 -105.68366211 361.81610352 -105.33154297 360.71923828 C-103.58916309 357.16100081 -102.4620565 356.02544103 -99 354 C-94.92395323 353.39857315 -90.87537116 353.46432985 -86.76171875 353.49829102 C-85.52056305 353.49288803 -84.27940735 353.48748505 -83.00064087 353.48191833 C-79.60366138 353.47156337 -76.20765795 353.47912216 -72.81076431 353.49562955 C-69.25233838 353.50950066 -65.69394128 353.50301763 -62.13549805 353.49949646 C-56.16023604 353.49679595 -50.1851751 353.51025604 -44.20996094 353.53344727 C-37.30649881 353.56005615 -30.40337281 353.56180359 -23.49987698 353.5500589 C-16.85287116 353.53927125 -10.20598667 353.54547589 -3.55899048 353.55961418 C-0.73293177 353.56536547 2.09303791 353.56529809 4.9190979 353.56054878 C8.86676707 353.55488058 12.81410133 353.57411802 16.76171875 353.59594727 C17.93278168 353.59144562 19.1038446 353.58694397 20.31039429 353.58230591 C21.38705353 353.59221054 22.46371277 353.60211517 23.57299805 353.61231995 C24.505811 353.61474984 25.43862396 353.61717974 26.39970398 353.61968327 C29.57140813 354.08357359 31.45047343 355.07464689 34 357 C35.58092946 362.3544961 34.63828093 366.4792218 32.82202148 371.59326172 C32.57821243 372.31800186 32.33440338 373.042742 32.08320618 373.78944397 C31.27679317 376.17466051 30.44918511 378.55191943 29.62109375 380.9296875 C29.04981909 382.60487586 28.47985958 384.28051323 27.91114807 385.95657349 C26.40941447 390.37039608 24.88949235 394.7777445 23.36578369 399.184021 C21.83864645 403.61100199 20.32944294 408.04408222 18.81835938 412.4765625 C16.58256511 419.02510929 14.3402285 425.57134622 12.08374023 432.11279297 C11.82993812 432.850408 11.576136 433.58802303 11.31464291 434.34799004 C10.00394503 438.14477283 8.66831519 441.9305373 7.29495239 445.70513916 C7.01830026 446.47077745 6.74164812 447.23641575 6.45661259 448.0252552 C5.93263082 449.47156585 5.40318528 450.91591415 4.86711025 452.35778618 C2.14942934 459.87759789 1.6678111 466.28184499 4.625 473.75 C9.10237624 482.50123537 14.76102519 486.92034173 24 490 C31.76043307 490.96807038 38.73642192 489.14072736 45.046875 484.4921875 C52.9192043 477.25906443 55.41700803 466.20023175 58.7109375 456.34375 C59.16023086 455.00979076 59.60992729 453.67596722 60.05999756 452.3422699 C61.01117412 449.52120856 61.95977778 446.69930108 62.90631104 443.87667847 C64.38286935 439.47410941 65.86632665 435.0738852 67.35107422 430.67407227 C69.32255661 424.83039752 71.29230445 418.98614317 73.25976562 413.14111328 C73.49443731 412.44396052 73.729109 411.74680777 73.97089195 411.02852917 C75.04993743 407.82282111 76.12887228 404.61707584 77.20776367 401.41131592 C79.21723719 395.44224735 81.2311362 389.47472708 83.25421143 383.51025391 C84.102796 381.00310195 84.94479165 378.49380149 85.78662109 375.984375 C86.29745518 374.47773013 86.80866022 372.97121096 87.3203125 371.46484375 C87.53604919 370.8156749 87.75178589 370.16650604 87.97406006 369.49766541 C91.86322892 358.13677108 91.86322892 358.13677108 95 355 C96.38151332 354.90114898 97.76801737 354.87092347 99.15306091 354.86869812 C100.04871262 354.86468994 100.94436432 354.86068176 101.86715698 354.85655212 C103.35301804 354.8573452 103.35301804 354.8573452 104.86889648 354.8581543 C105.9063652 354.85467987 106.94383392 354.85120544 108.01274109 354.84762573 C110.27556759 354.84025153 112.53840142 354.83491507 114.80123711 354.83133507 C118.3872505 354.82418654 121.9731257 354.80852955 125.55909729 354.78999329 C135.75869789 354.73746574 145.95822622 354.68959131 156.15795898 354.67407227 C162.39030171 354.66396642 168.62230211 354.63456772 174.85450935 354.59275246 C177.22701485 354.58046682 179.59956878 354.57531672 181.97210503 354.57755089 C185.30395584 354.57991497 188.6348338 354.55764934 191.96655273 354.5300293 C192.93890869 354.53663071 193.91126465 354.54323212 194.91308594 354.55003357 C202.99555984 354.44062405 211.51107138 352.41397351 217.6171875 346.7265625 C222.78316028 340.27639309 226.05174558 332.99247623 225.51171875 324.6640625 C224.04283632 317.01690361 220.20591379 311.56262372 214.453125 306.47265625 C208.12408396 302.673216 201.60815142 301.55644382 194.33081055 301.64697266 C193.51662155 301.64481247 192.70243256 301.64265228 191.86357117 301.64042664 C190.11379128 301.63736231 188.36398945 301.64087782 186.61423302 301.65044022 C183.84397081 301.664276 181.07441693 301.65768623 178.30415344 301.64559937 C170.43473432 301.61475838 162.56548695 301.61959011 154.69604492 301.63964844 C149.86794249 301.65055206 145.0403784 301.63741558 140.21235085 301.60975266 C138.37633411 301.60431055 136.54026355 301.60837998 134.70429039 301.62215042 C132.14299762 301.64115585 129.58347806 301.62983057 127.0222168 301.61181641 C126.26527527 301.62515518 125.50833374 301.63849396 124.72845459 301.65223694 C121.12839637 301.59585358 119.28163155 301.22389127 116.43611145 298.96176147 C113.4075691 292.71585344 116.48470816 285.83329572 118.62036133 279.63134766 C118.88718216 278.83669601 119.15400299 278.04204437 119.4289093 277.22331238 C120.30592155 274.61767691 121.19376455 272.01588059 122.08203125 269.4140625 C122.69937331 267.58877057 123.3161187 265.76327675 123.93229675 263.93759155 C125.22307626 260.1182558 126.51884026 256.30066264 127.81860352 252.484375 C129.47655719 247.61610965 131.12546796 242.74484556 132.77104664 237.87238503 C134.04437174 234.10355298 135.32080822 230.33578104 136.59833336 226.56837082 C137.20683092 224.7737822 137.81478332 222.97900863 138.42215919 221.18404007 C140.25297283 215.77921399 142.10640256 210.38316226 144 205 C144.37957855 203.91628113 144.7591571 202.83256226 145.15023804 201.71600342 C145.48181915 200.82278381 145.81340027 199.92956421 146.1550293 199.00927734 C146.42139694 198.28606293 146.68776459 197.56284851 146.96220398 196.81771851 C148.3507878 194.38558882 149.53636589 193.35564819 152 192 C155.12261963 191.62818909 155.12261963 191.62818909 158.84472656 191.63110352 C159.52496384 191.62733704 160.20520111 191.62357056 160.90605164 191.61968994 C162.37978998 191.61326646 163.85356976 191.61357911 165.32730865 191.61987495 C167.66564972 191.62900395 170.00319198 191.61873992 172.3414917 191.60325623 C178.98822805 191.5632165 185.63490137 191.56194689 192.28173828 191.56420898 C196.35194563 191.56426029 200.42172406 191.54498809 204.49181366 191.51487541 C206.78521642 191.50410771 209.07777966 191.51614815 211.37115479 191.52870178 C221.47610767 191.50295464 228.44151055 190.18390944 236 183 C240.29520608 176.72955815 243.00875973 170.3295389 242.51171875 162.6640625 C241.02629055 154.93076457 237.17326098 149.50945025 231.2578125 144.47265625 C224.53833926 140.08988564 219.04450073 139.56947644 211.17578125 139.59375 C210.15195847 139.58291382 209.12813568 139.57207764 208.07328796 139.56091309 C203.71483773 139.51519457 199.35644995 139.50353699 194.99780273 139.48876953 C191.80691235 139.47309881 188.61652191 139.44011587 185.42578125 139.40625 C183.94758659 139.41078186 183.94758659 139.41078186 182.43952942 139.41540527 C181.52145004 139.40529419 180.60337067 139.39518311 179.6574707 139.38476562 C178.85251663 139.38271118 178.04756256 139.38065674 177.21821594 139.37854004 C174.38577177 138.89518154 173.03016473 138.02167663 171 136 C168.50391585 127.62337082 173.35981677 117.74428353 176.109375 109.87890625 C176.63917714 108.3281561 177.16765675 106.77695356 177.69488525 105.22532654 C179.08054015 101.15936229 180.48448696 97.0999503 181.89233398 93.04162598 C183.31223819 88.93732274 184.71366074 84.82672255 186.1171875 80.71679688 C188.18323749 74.6772578 190.25457626 68.63958756 192.34277344 62.60766602 C192.57230839 61.94436216 192.80184334 61.28105831 193.03833389 60.59765434 C194.71604189 55.76970522 196.46594104 50.97150805 198.27142334 46.18997192 C200.3338939 39.99055206 200.11127176 32.60915583 197.4375 26.625 C193.26095325 19.64441126 187.49272728 14.59 179.625 12.3125 C169.98842781 11.16528903 163.48011749 13.05710892 155.75 19 C146.94270209 27.49242201 144.13189125 43.10991794 140.32669067 54.42404175 C139.23084903 57.68193508 138.12964263 60.93797242 137.02709961 64.19360352 C134.27576366 72.32151168 131.53350134 80.45247416 128.79156494 88.58355713 C126.42794124 95.59199149 124.06088405 102.59924673 121.68908691 109.60491943 C120.57529566 112.89964889 119.46676607 116.19611855 118.35839844 119.49267578 C117.67799428 121.5043197 116.99734365 123.51588027 116.31640625 125.52734375 C115.85504021 126.90663811 115.85504021 126.90663811 115.38435364 128.313797 C115.09839828 129.15504623 114.81244293 129.99629547 114.51782227 130.86303711 C114.2715358 131.59380966 114.02524933 132.32458221 113.77149963 133.07749939 C113 135 113 135 111 138 C107.96634193 139.01121936 105.90534963 139.13529366 102.73085022 139.15390015 C101.63866684 139.16250061 100.54648346 139.17110107 99.42120361 139.17996216 C98.22267761 139.18422211 97.02415161 139.18848206 95.78930664 139.19287109 C94.52732956 139.20104858 93.26535248 139.20922607 91.96513367 139.21765137 C87.78016283 139.24383521 83.59518214 139.25917119 79.41015625 139.2734375 C77.96925793 139.27879789 76.52835967 139.2841754 75.08746147 139.28956985 C69.09537275 139.31118953 63.10328669 139.3299278 57.11116886 139.34119225 C48.52258659 139.35744454 39.93445573 139.39066302 31.34604365 139.44759309 C25.3069047 139.486262 19.26788667 139.50582103 13.22862715 139.51111281 C9.62111098 139.51476935 6.01407667 139.52682211 2.40669441 139.55921555 C-1.61578231 139.59482089 -5.63728477 139.59093326 -9.65991211 139.58349609 C-10.85641388 139.59990143 -12.05291565 139.61630676 -13.28567505 139.63320923 C-21.30538332 139.57228539 -21.30538332 139.57228539 -24.77149963 136.71659851 C-28.19351332 129.14945605 -23.62198659 120.13076542 -21.0625 112.78515625 C-20.66353516 111.61657578 -20.26457031 110.4479953 -19.85351562 109.2440033 C-18.57766026 105.51380364 -17.28904657 101.78815899 -16 98.0625 C-15.16452429 95.62593901 -14.32988193 93.1890921 -13.49609375 90.75195312 C-12.66415613 88.32548873 -11.83212501 85.89905639 -11 83.47265625 C-10.58903076 82.27170319 -10.17806152 81.07075012 -9.75463867 79.83340454 C-7.68303245 73.80249314 -5.5690349 67.79279453 -3.3671875 61.80810547 C-2.94824219 60.65120712 -2.52929688 59.49430878 -2.09765625 58.30235291 C-1.31141062 56.13602679 -0.51048517 53.97494249 0.30859375 51.82081604 C3.48590329 42.9972379 4.80846623 34.4304446 0.9375 25.625 C-2.45873963 19.66483862 -7.32955913 14.91386109 -13.86328125 12.4765625 C-24.51104187 10.10174203 -34.38065451 12.08549409 -42.25 19.8125 Z " fill="#010000" transform="translate(253,5)"/>
<path d="M0 0 C1.2510553 -0.0071553 2.5021106 -0.01431061 3.79107666 -0.02168274 C7.21091709 -0.03566816 10.62923921 -0.02728995 14.0489552 -0.00759244 C17.63273815 0.00883007 21.21647294 -0.00002365 24.80027771 -0.00511169 C30.81668558 -0.00962809 36.83278209 0.00621007 42.84912109 0.03417969 C49.79982407 0.06624442 56.74996604 0.06620894 63.70070893 0.04896492 C70.39526485 0.03308996 77.08961555 0.03983857 83.78416252 0.05690193 C86.62978533 0.06376532 89.47524328 0.06274746 92.32086372 0.05535698 C96.29485518 0.04625886 100.26827215 0.07025093 104.2421875 0.09765625 C106.01045143 0.08786743 106.01045143 0.08786743 107.81443787 0.07788086 C112.36580001 0.13132503 115.65380409 0.18198239 119.76353455 2.22694397 C122.21326963 5.51194537 122.5278553 7.52818916 122.55639648 11.63110352 C121.96333471 14.67219005 121.00297103 17.53197062 119.97949219 20.45288086 C119.55043831 21.73483086 119.55043831 21.73483086 119.11271667 23.04267883 C118.16700785 25.85592823 117.19996514 28.66131812 116.23217773 31.46704102 C115.56652901 33.4304731 114.90209329 35.3943168 114.23881531 37.35855103 C112.84638403 41.47210142 111.44423127 45.58215401 110.03417969 49.68969727 C108.2332825 54.93606271 106.44910051 60.18790536 104.67127705 65.44212914 C102.96816981 70.47322825 101.25675915 75.50149021 99.54467773 80.52954102 C99.22163477 81.48043987 98.8985918 82.43133873 98.56575966 83.4110527 C97.64179206 86.12578845 96.71196337 88.83844334 95.78027344 91.55053711 C95.51256134 92.33939804 95.24484924 93.12825897 94.96902466 93.94102478 C89.84852621 108.7696837 89.84852621 108.7696837 85.55639648 111.63110352 C83.15534401 111.89116573 83.15534401 111.89116573 80.25601196 111.90525818 C78.6072834 111.92022087 78.6072834 111.92022087 76.92524719 111.93548584 C75.11578865 111.93648285 75.11578865 111.93648285 73.26977539 111.9375 C71.99965103 111.94582352 70.72952667 111.95414703 69.4209137 111.96272278 C65.9353208 111.98467748 62.44981563 111.99346794 58.9641614 111.99854922 C56.78630182 112.00219167 54.60846527 112.00843114 52.43061447 112.01555061 C44.83223205 112.04004855 37.23391794 112.05309773 29.63549805 112.05664062 C22.55362617 112.06027615 15.47218763 112.09017133 8.39044821 112.13204521 C2.30966539 112.16673951 -3.77097378 112.18218891 -9.85185492 112.18288666 C-13.4834122 112.18367979 -17.11452814 112.19243389 -20.74598312 112.22088432 C-24.79703087 112.25191209 -28.84704626 112.24300971 -32.89819336 112.23046875 C-34.10045059 112.24530304 -35.30270782 112.26013733 -36.54139709 112.27542114 C-44.54660626 112.2046748 -44.54660626 112.2046748 -48.72769165 109.53114319 C-51.52398404 104.80516686 -50.87030895 101.29466497 -49.54161072 96.11457825 C-49.11860184 94.87584457 -48.69559296 93.6371109 -48.25976562 92.36083984 C-48.02717041 91.67017929 -47.7945752 90.97951874 -47.55493164 90.26792908 C-46.78701591 87.9960989 -46.0041441 85.72973752 -45.22094727 83.46313477 C-44.67630786 81.86226054 -44.13258763 80.26107333 -43.58973694 78.65959167 C-42.15679011 74.4406711 -40.71099829 70.22626167 -39.26257324 66.01263428 C-37.8154829 61.79511043 -36.38111025 57.57326816 -34.94555664 53.35180664 C-32.5049849 46.17794248 -30.04179688 39.01212646 -27.56920433 31.84924507 C-26.09787326 27.57404595 -24.67082734 23.28767931 -23.28393555 18.98413086 C-22.97565323 18.04647385 -22.66737091 17.10881683 -22.3497467 16.14274597 C-21.81759169 14.51889621 -21.29954515 12.89029818 -20.80101013 11.2558136 C-17.13128026 0.21697676 -10.36459124 -0.1029767 0 0 Z M-3.44360352 18.63110352 C-5.73210589 24.35235945 -7.9531556 29.90906768 -9.91723633 35.71728516 C-10.13239899 36.35112122 -10.34756165 36.98495728 -10.56924438 37.63800049 C-11.26442836 39.688188 -11.95568787 41.73967239 -12.64672852 43.79125977 C-13.13405908 45.23195478 -13.62159112 46.67258166 -14.10931396 48.11314392 C-15.12285626 51.10870494 -16.13454624 54.10488257 -17.14477539 57.1015625 C-18.44204635 60.94946964 -19.74315916 64.79606428 -21.04552078 68.64225101 C-22.04867599 71.60568566 -23.0502779 74.56964331 -24.05135345 77.53378105 C-24.53103419 78.95374825 -25.01110024 80.37358535 -25.49155426 81.79329109 C-26.15840695 83.76484238 -26.82327259 85.73705205 -27.48754883 87.70947266 C-27.86631165 88.83180801 -28.24507446 89.95414337 -28.63531494 91.11048889 C-29.49449609 93.34863634 -29.49449609 93.34863634 -29.44360352 94.63110352 C5.20639648 94.63110352 39.85639648 94.63110352 75.55639648 94.63110352 C85.40909576 66.67431516 85.40909576 66.67431516 95.09130859 38.65942383 C95.91517276 36.24551475 96.74257721 33.83283394 97.57006836 31.42016602 C98.10346931 29.86033782 98.63668184 28.30044517 99.16967773 26.74047852 C99.41325516 26.0305072 99.65683258 25.32053589 99.90779114 24.58905029 C101.06327882 21.67452739 101.06327882 21.67452739 101.55639648 18.63110352 C66.90639648 18.63110352 32.25639648 18.63110352 -3.44360352 18.63110352 Z " fill="#010000" transform="translate(221.443603515625,195.368896484375)"/>
<path d="M0 0 C5.61 0 11.22 0 17 0 C14.16255435 9.77565196 10.91454949 19.41036508 7.6875 29.0625 C7.23138336 30.42852356 7.23138336 30.42852356 6.76605225 31.82214355 C-0.05625136 52.24867521 -6.95435202 72.64934851 -14 93 C-14.22469971 93.64958679 -14.44939941 94.29917358 -14.6809082 94.96844482 C-15.97855342 98.71430248 -17.29429966 102.45326661 -18.625 106.1875 C-18.91938965 107.02958008 -19.2137793 107.87166016 -19.51708984 108.73925781 C-22.75316452 117.67302043 -27.15200269 122.76821202 -35.375 127.3125 C-39.25320594 128.3282206 -43.01825524 128.12996495 -47 128 C-46.3671106 127.15586548 -46.3671106 127.15586548 -45.72143555 126.29467773 C-39.4354069 117.25488534 -36.28580575 107.42362638 -32.8125 97.0625 C-32.15560064 95.13803788 -31.49754252 93.21397095 -30.83837891 91.2902832 C-28.87152859 85.53376017 -26.93246555 79.76814224 -25 74 C-24.45068618 72.3636059 -23.9013699 70.72721263 -23.35205078 69.09082031 C-21.37276961 63.18746323 -19.40139781 57.28152821 -17.44555664 51.37036133 C-13.61823613 39.8056698 -9.70030336 28.27323203 -5.75 16.75 C-5.458974 15.90102142 -5.167948 15.05204285 -4.86810303 14.17733765 C-3.24738059 9.4508751 -1.62400717 4.725337 0 0 Z " fill="#AC1456" transform="translate(130,367)"/>
<path d="M0 0 C0 4.00685084 -1.34753468 7.39589862 -2.62695312 11.14550781 C-2.9067099 11.97706894 -3.18646667 12.80863007 -3.47470093 13.66539001 C-4.4058529 16.42946237 -5.34349633 19.19128606 -6.28125 21.953125 C-6.93505813 23.88901633 -7.58849461 25.82503321 -8.24157715 27.76116943 C-9.61763014 31.83764003 -10.99660983 35.91310409 -12.37792969 39.98779297 C-14.4679088 46.15293124 -16.55067037 52.32049276 -18.6328125 58.48828125 C-21.56594665 67.17423786 -24.51072473 75.85617261 -27.46491051 84.53499126 C-29.1912713 89.60945219 -30.9022393 94.68863978 -32.60009766 99.77270508 C-33.29817701 101.83946547 -33.99654347 103.90612893 -34.6953125 105.97265625 C-34.98079956 106.8425116 -35.26628662 107.71236694 -35.5604248 108.60858154 C-38.25952157 116.5138372 -42.14012003 122.12546532 -49.4765625 126.46484375 C-55.05600962 129.03000752 -59.92268591 129.39208478 -66 129 C-65.278125 128.505 -64.55625 128.01 -63.8125 127.5 C-57.25286368 121.66921216 -54.68515336 114.02213053 -52.06640625 105.84765625 C-51.71173279 104.77095169 -51.35705933 103.69424713 -50.99163818 102.58491516 C-49.83917283 99.08045378 -48.70104597 95.57150529 -47.5625 92.0625 C-46.3608441 88.40023151 -45.15528531 84.73926187 -43.94963074 81.07830811 C-43.13836023 78.61390701 -42.32831492 76.14910226 -41.51948547 73.68389893 C-37.86548329 62.55269337 -34.11056395 51.45774606 -30.3125 40.375 C-29.76826371 38.78264947 -29.22407281 37.19028343 -28.67993164 35.59790039 C-27.40007441 31.8571422 -26.11392371 28.11860306 -24.82281494 24.38171387 C-24.23568459 22.68221081 -23.64948272 20.98238688 -23.06390381 19.28234863 C-22.10175251 16.49181519 -21.13539634 13.70277059 -20.16796875 10.9140625 C-19.8668367 10.03938324 -19.56570465 9.16470398 -19.25544739 8.26351929 C-18.97545395 7.45935577 -18.69546051 6.65519226 -18.40698242 5.82666016 C-18.15913498 5.11095856 -17.91128754 4.39525696 -17.65592957 3.65786743 C-17 2 -17 2 -16 1 C-13.30764224 0.76321284 -10.63501844 0.57801975 -7.9375 0.4375 C-7.17888672 0.39431641 -6.42027344 0.35113281 -5.63867188 0.30664062 C-3.75934562 0.20026367 -1.87969756 0.09960066 0 0 Z " fill="#AC1356" transform="translate(343,366)"/>
<path d="M0 0 C8.83457905 -0.62312862 15.65569369 -0.28204639 23 5 C27.96025694 9.42429697 31.49334361 14.70632274 32.28701782 21.43234253 C32.61188313 30.69700867 29.99376521 38.48047655 26.9609375 47.0703125 C26.43560248 48.60132196 25.9119237 50.1329006 25.38980103 51.66500854 C24.01735699 55.67825568 22.62333869 59.68366226 21.22424316 63.68768311 C19.82297939 67.70929201 18.44135604 71.73762522 17.05859375 75.765625 C15.49159281 80.32705093 13.92290838 84.8878172 12.33895874 89.44338989 C8.80785316 99.6016764 5.3854835 109.79211172 2 120 C-3.61 120 -9.22 120 -15 120 C-12.54045237 110.45992053 -9.45037151 101.19677515 -6.2734375 91.87890625 C-5.71928469 90.24522399 -5.16546777 88.61142777 -4.61196899 86.9775238 C-3.16515167 82.70882767 -1.71473681 78.44136386 -0.26324463 74.17425537 C2.06729765 67.32163153 4.39329988 60.46746878 6.71738815 53.61265373 C7.52740716 51.22575132 8.33959081 48.8395935 9.15200806 46.45350647 C9.64779711 44.99319857 10.14351819 43.53286759 10.63916016 42.07250977 C10.97735023 41.08207169 10.97735023 41.08207169 11.32237244 40.07162476 C15.01065842 29.18335894 15.19919072 20.38705303 10.484375 9.69140625 C7.48684538 4.14413886 7.48684538 4.14413886 2.25 1.1875 C1.13625 1.0946875 1.13625 1.0946875 0 1 C0 0.67 0 0.34 0 0 Z " fill="#AC1456" transform="translate(224,17)"/>
<path d="M0 0 C8.28137966 -0.45171162 14.79946849 0.87282185 21.3125 6.25 C24.7868274 9.5097773 26.90981164 12.73601574 29 17 C29.495 17.99 29.495 17.99 30 19 C30.83180249 28.28119616 29.28623945 35.9198996 26.16015625 44.60546875 C25.55958656 46.34984978 25.55958656 46.34984978 24.94688416 48.12947083 C23.67069827 51.82226304 22.36732937 55.50474454 21.0625 59.1875 C20.22147 61.60548152 19.38226417 64.02409833 18.54492188 66.44335938 C15.20106834 76.0808941 11.81745703 85.70399962 8.39794922 95.31494141 C7.57638451 97.64351486 6.75492827 99.97212659 5.93359375 102.30078125 C5.55163345 103.36250046 5.16967316 104.42421967 4.77613831 105.51811218 C2.82663226 111.06526903 1.45630458 116.13116039 1 122 C0.67 121.01 0.34 120.02 0 119 C-5.28 119 -10.56 119 -16 119 C-15.33556063 115.0133638 -14.73009504 111.81506314 -13.48461914 108.08154297 C-13.17630157 107.15036652 -12.86798401 106.21919006 -12.55032349 105.25979614 C-12.0478157 103.76607986 -12.0478157 103.76607986 -11.53515625 102.2421875 C-11.18581024 101.19360565 -10.83646423 100.1450238 -10.47653198 99.06466675 C-9.72918508 96.82489906 -8.97960692 94.58587485 -8.22799683 92.34753418 C-7.05795501 88.86145845 -5.89583224 85.37281436 -4.73461914 81.88378906 C-1.07066342 70.90966398 2.67935622 59.99116949 6.77319336 49.17016602 C11.88873611 35.60007731 15.10138994 24.34932284 9.2109375 10.3125 C6.87454714 5.85074809 4.2319065 2.821271 0 0 Z " fill="#AB1356" transform="translate(422,17)"/>
<path d="M0 0 C5.61 0 11.22 0 17 0 C15.11209724 7.13013077 13.03918779 14.12081271 10.62890625 21.08984375 C10.15069679 22.48686523 10.15069679 22.48686523 9.66282654 23.91210938 C8.98295121 25.89745437 8.30160945 27.88229771 7.61889648 29.8666687 C5.82347425 35.0857686 4.03908253 40.30863845 2.25390625 45.53125 C1.89535553 46.57941391 1.53680481 47.62757782 1.16738892 48.70750427 C-2.27047833 58.76798787 -5.64681597 68.84851915 -9 78.9375 C-9.25893036 79.71624481 -9.51786072 80.49498962 -9.78463745 81.29733276 C-11.19192686 85.53084128 -12.59639671 89.76526506 -14 94 C-19.61 94 -25.22 94 -31 94 C-29.76434761 88.06835926 -28.26643678 82.41502929 -26.26953125 76.69921875 C-26.00199539 75.92036316 -25.73445953 75.14150757 -25.45881653 74.33905029 C-24.58114447 71.78698164 -23.69680323 69.23727763 -22.8125 66.6875 C-22.19592157 64.89805046 -21.57988332 63.1084147 -20.96435547 61.31860352 C-19.66209043 57.53275268 -18.35771588 53.74763745 -17.05224609 49.96289062 C-13.88961354 40.78437062 -10.76373192 31.59329798 -7.63485718 22.40322876 C-6.02075163 17.66295524 -4.4048001 12.92331116 -2.7890625 8.18359375 C-1.85933262 5.45574361 -0.92966598 2.72787192 0 0 Z " fill="#AD1456" transform="translate(185,205)"/>
<path d="M0 0 C1.48831242 0.00667405 2.97660807 0.01863442 4.46484375 0.03515625 C5.22345703 0.03966797 5.98207031 0.04417969 6.76367188 0.04882812 C8.64326246 0.06064945 10.52281274 0.07858547 12.40234375 0.09765625 C11.59471046 5.1226436 9.91267196 9.8355711 8.296875 14.64453125 C7.82262337 16.06714264 7.82262337 16.06714264 7.33879089 17.51849365 C6.30061836 20.62927485 5.25788215 23.73850351 4.21484375 26.84765625 C3.49663705 28.99540668 2.77853914 31.1431935 2.06054688 33.29101562 C-4.73364942 53.59125406 -11.64597757 73.8508921 -18.59765625 94.09765625 C-24.20765625 94.09765625 -29.81765625 94.09765625 -35.59765625 94.09765625 C-33.64224349 86.69700377 -31.4599692 79.44840735 -28.97265625 72.2109375 C-28.45705139 70.69749252 -28.45705139 70.69749252 -27.93103027 69.1534729 C-26.82323124 65.90455412 -25.7106263 62.65730686 -24.59765625 59.41015625 C-23.83245423 57.17073221 -23.06748166 54.93122976 -22.30273438 52.69165039 C-20.78194792 48.24003554 -19.25904546 43.78915321 -17.734375 39.33886719 C-16.11302801 34.6055975 -14.49686352 29.87059746 -12.88476562 25.13417053 C-11.85820341 22.11893114 -10.82918001 19.10453679 -9.79931641 16.09042358 C-9.33328279 14.72534157 -8.86810686 13.35996644 -8.40380859 11.99429321 C-7.77331585 10.1410711 -7.13874465 8.28923797 -6.50390625 6.4375 C-6.15650391 5.42034912 -5.80910156 4.40319824 -5.45117188 3.35522461 C-4.09044635 -0.24392554 -4.1598085 0.11291554 0 0 Z " fill="#AD1456" transform="translate(385.59765625,204.90234375)"/>
<path d="M0 0 C10.40560862 -0.06968359 20.8111612 -0.12290427 31.21695614 -0.15543652 C36.04942539 -0.17105481 40.88173432 -0.19222264 45.71411133 -0.22631836 C50.38254421 -0.2590491 55.05082343 -0.27688184 59.71936226 -0.28463173 C61.49545267 -0.2901507 63.27153521 -0.30092767 65.04755974 -0.31719017 C87.35718689 -0.51324371 87.35718689 -0.51324371 96.203125 7.92578125 C101.3472812 13.86392678 103.95737818 20.23272658 103.54296875 28.12890625 C102.00692937 36.25112885 98.12557074 43.08807747 91.3203125 47.81640625 C84.09887155 51.50007057 78.38005109 52.43044226 70.36132812 52.34057617 C69.32628143 52.34101425 68.29123474 52.34145233 67.224823 52.34190369 C63.8267689 52.339825 60.42921719 52.31653698 57.03125 52.29296875 C54.66614044 52.28736954 52.30102738 52.28310098 49.93591309 52.28010559 C43.72821348 52.26868252 37.52072634 52.23923697 31.31311035 52.20599365 C24.9717903 52.17523814 18.63043573 52.16158854 12.2890625 52.14648438 C-0.14071806 52.11436501 -12.57034132 52.06319923 -25 52 C-25 51.67 -25 51.34 -25 51 C-23.13744316 51.00119339 -23.13744316 51.00119339 -21.23725891 51.00241089 C-9.53928509 51.00601211 2.15824912 50.97824915 13.85608196 50.9197216 C19.87022442 50.89064072 25.88397625 50.87263861 31.89819336 50.87988281 C37.7015774 50.88646667 43.50418891 50.86404377 49.3074131 50.82144547 C51.52216658 50.81029757 53.73699824 50.80962916 55.95175743 50.81957626 C59.05292543 50.8317201 62.15172504 50.80671913 65.25268555 50.77294922 C66.16978302 50.78517014 67.08688049 50.79739105 68.0317688 50.8099823 C72.67496456 50.78223966 72.67496456 50.78223966 76.66459084 48.69003677 C78.93276862 46.02284715 80.7429547 43.02957786 82.25 39.875 C82.72179687 38.91207031 82.72179687 38.91207031 83.203125 37.9296875 C86.83392571 29.1374544 85.41691137 19.60330016 82 11 C81.55918594 9.8089138 81.55918594 9.8089138 81.10946655 8.59376526 C79.69650589 5.73358296 78.48397733 4.03124792 76 2 C70.27846497 0.64451924 64.64074378 0.81086062 58.7890625 0.90234375 C57.09368163 0.89668772 55.39830975 0.88707297 53.70297241 0.87367249 C49.25371608 0.84909412 44.80637797 0.87811436 40.3572998 0.91845703 C35.81235216 0.95013339 31.26764769 0.93090633 26.72265625 0.91601562 C17.81460927 0.89430616 8.90775896 0.92924131 0 1 C0 0.67 0 0.34 0 0 Z " fill="#A31350" transform="translate(375,307)"/>
<path d="M0 0 C7.13512446 -0.66065967 12.0547409 0.99130739 18 5 C24.2321641 10.57860382 28.00460252 16.72201213 28.5625 25.1875 C28.3240321 32.71479117 25.31547953 39.65866878 19.99609375 45.01953125 C18.06000873 46.52945714 16.13959513 47.80039436 14 49 C12.7934375 49.680625 12.7934375 49.680625 11.5625 50.375 C7.71677969 51.31298056 3.93748229 51.15441107 0 51 C0.38671875 50.46632812 0.7734375 49.93265625 1.171875 49.3828125 C7.94623658 39.69078034 11.6463016 31.03503235 10 19 C7.90442272 11.85442501 4.61778172 5.8052113 0 0 Z " fill="#AA1355" transform="translate(467,145)"/>
</svg>
